<svg id="Capa_1" data-name="Capa 1" xmlns="http://www.w3.org/2000/svg" viewBox="0 0 1200 200"><defs><style>.cls-1{fill:#29abe2;}.cls-2{fill:#00a99d;}.cls-3{fill:#fbb03b;}</style></defs><title>grafico</title><path class="cls-1" d="M10.63,70.11c32.14-31.44,81.44-19.66,117.3-2.27,39,18.91,78.17,47.16,123.76,43.32,21.12-1.78,38.22-12.13,54.95-24.36,16.22-11.86,32.46-24.23,53.14-26.16,20.32-1.9,39.89,8,41.89,30.13,1,10.82-1.75,21.74-4.86,32-1.17,3.84-2.74,9.4-7.72,9.42-2.77,0-4.76-1.51-6.62-3.53-3.62-4-5.73-9.34-6.72-14.53-2.1-11-3.4-26.35,7.64-33.19,9.15-5.66,20.84-.81,29.42,3.6,8.83,4.53,16.8,10.49,25.56,15.12A122.47,122.47,0,0,0,467,110.37c20.13,4.85,41.14,5.25,61.7,3.58,19.32-1.58,39.61-4,57.68-11.32,15.18-6.17,31.52-18.14,34.24-35.48,1.19-7.58-1-15.18-7.12-20.1-5.51-4.45-13-5.28-18.93-1.13-13.39,9.41-9.19,28.67.23,39.11,14.09,15.63,35.83,15.52,54.93,11.26C697.85,85.57,743.63,65.51,789.53,48c21.89-8.33,45.62-15.69,69.33-12.88,19.24,2.29,38.72,12.61,49.7,28.84a46.18,46.18,0,0,1,8.06,26.24l1.89-1.45c-5.79-1.16-7.3-7.08-6.2-12.28,1.5-7.12,7.48-10.47,14.42-11,12.56-1,26.09,5,38.18,7.88a399.25,399.25,0,0,0,72.69,10.72c48.15,2.37,96.72-6.28,138.05-32,23.49-14.62,46.4-33.74,75.13-35.79,1.91-.14,1.93-3.14,0-3-26.23,1.87-47.72,17.44-69,31.34-23.7,15.45-49.07,26.51-76.9,32-27.58,5.47-56,5.92-83.89,3.21a398,398,0,0,1-43-6.66c-13.59-2.84-26.89-7.39-40.52-9.9-10-1.84-23-1.15-27.24,9.91-2.71,7.12-.9,16.78,7.55,18.46a1.52,1.52,0,0,0,1.9-1.44c.09-36.94-38.92-59-72.09-58.61-23.82.26-46.6,8.57-68.45,17.29C755.22,58.45,731.35,67.77,707,76q-18.11,6.09-36.43,11.54C658,91.23,645.19,95.25,632,95.83c-12.51.54-24.87-2.52-33.87-11.62-7.9-8-12.59-20.86-6.13-31.18,4-6.5,11.65-8.8,18.28-4.61,6.36,4,8.61,11.79,7.29,18.9-2.09,11.26-11,20.53-20.37,26.47C579.53,105,557.33,108,536.94,110.16c-22.63,2.45-45.89,2.74-68.17-2.46a118.18,118.18,0,0,1-31.55-12.07c-8.83-5-17-11-26.27-15.31-13.8-6.39-32.29-7.87-38.08,9.74-4.08,12.41-1.56,38.35,12.36,44.49,5.74,2.53,10.62-1.21,12.93-6.4,3.95-8.85,6-19.92,6.59-29.57,1-16.79-6.45-32.42-22.8-38.44C342.82,45.72,312.74,83.3,281.82,99.37c-46.77,24.31-96.5-4.92-137.8-26.7C109.51,54.47,68.23,37.6,29.59,53.93A67.52,67.52,0,0,0,8.51,68c-1.39,1.36.74,3.48,2.12,2.12Z"/><path class="cls-2" d="M45.25,125c15.06-24.08,35.62-48.07,64.07-55.88,21.83-6,49.87.93,62.6,20.78,5.91,9.21,11.59,32.55-5.16,34.3-8.08.85-10.08-7.64-8.12-13.9,1.64-5.23,5.55-9,10.39-11.4,24.43-12.16,48.78,6.45,70.55,15.31,12.65,5.14,26.58,7.75,39.79,3,12.24-4.37,21.86-13.33,30.68-22.56,9-9.39,17.47-19.25,28.44-26.39a100,100,0,0,1,34.56-14C398,49.14,425,53,447,65.94c11.79,6.91,19.92,17.34,30.67,25.45,9,6.79,20.74,9.9,31,3.88,8.44-4.93,11.8-15.76,5.71-23.89-5.69-7.62-17.22-10.1-26-7-21.72,7.58-21.82,37.78-10.15,53.63,15.75,21.39,46.92,21.53,70.29,16.16,30.23-7,54.43-23.87,75.77-45.78,10.54-10.82,21.26-20.95,34.89-27.8a109.65,109.65,0,0,1,39.15-10.82c27.92-2.54,56.24,3.37,82,14,11.52,4.73,28.22,10.87,33.91,23a13,13,0,0,1-3.1,15.59c-5,4.47-11.82,2-11-5,2.06-17.39,23.48-11.56,34.09-7.18,13,5.35,25.86,10.71,39.41,14.51,25.1,7,53.55,10.1,77.57-2.2C964.58,95.54,972.9,83.9,983.57,74c11.34-10.56,26-16.38,41-19.53,63.85-13.41,128.25,14.46,190.85,23A267.12,267.12,0,0,0,1261.73,80c5.77-.22,5.8-9.22,0-9-69.15,2.63-134.06-28.81-203-28.74-31.33,0-63.68,6.43-86.08,29.89C961.38,84,951.24,94.63,934.93,99.08c-13.7,3.73-28.33,3.14-42.19.64-15-2.7-29.49-7.51-43.57-13.16-13.34-5.36-28.42-14.08-43.17-9-9.54,3.28-16.65,14.45-14.44,24.57,2.28,10.47,14,14.55,22.87,9,10.49-6.62,13-20.07,6.88-30.45-6.94-11.85-21-18.13-33.09-23.36-26.39-11.48-55.42-18.43-84.33-16.95-29.1,1.5-55.62,12.2-76.7,32.43-12.43,11.92-23.52,24.85-38.07,34.36a132.56,132.56,0,0,1-42.9,18.32c-24.73,5.69-65.25,3-66.77-30.34-.52-11.39,6.46-25.26,19.83-22.75,4.55.85,10.23,4.11,9.27,9.56-1.16,6.6-10.2,8.41-15.66,7.29-7.28-1.48-13.05-7.49-18.14-12.49A136.87,136.87,0,0,0,459.3,63.21a105.6,105.6,0,0,0-36-16.53,116.9,116.9,0,0,0-76.12,6.56A105,105,0,0,0,316,75.33c-10,10-18.88,21.77-31,29.25-29.78,18.33-56-11-84.39-16.92-19.24-4-48.1.35-51.39,24.1-1.76,12.73,7.62,24.07,20.94,21s18.22-17.27,16.33-29.68c-3.77-24.76-27.13-40.72-50.54-44.21-27.4-4.08-52.84,8.87-72,27.71-10.24,10.07-18.82,21.72-26.41,33.86-3.08,4.92,4.7,9.44,7.77,4.54Z"/><path class="cls-3" d="M-35.42,144.91a154.41,154.41,0,0,0,93.65.66c12.74-4,28.86-9.49,37.66-20.15,6.39-7.76,7.15-20.48-1.8-26.82-10.35-7.32-21,3.52-22.46,13.72-1.76,12.43,6.11,23.82,16.21,30.31,12.61,8.12,28.16,7.42,42.2,4,17.23-4.25,33.92-11.44,50.59-17.47l30.11-10.9c8.9-3.22,17.9-7,27.33-8.36,10.44-1.54,21.58.66,27.87,9.88,1.65,2.42,5.42,10.27,2,12.69s-7.83-2.35-7.42-5.54l-3,3c47.19,2,94.37,4.1,141.57,6,33.19,1.34,69.67,1.63,99.72-14.63,11.69-6.33,37-23.63,27.8-39.67a3,3,0,0,0-3.39-1.38c-6.78,2.29-10.9,8-11.88,15.06-1.19,8.46,3,16.15,9.28,21.56,13.79,11.83,34.72,15.54,52.36,15.61,40.78.17,79-18,118.37-26.06,19.16-3.89,42.56-7.25,61.25.31,9,3.63,16.78,11.43,14.24,21.76-1,4-3.43,8.25-7.48,9.76-4.8,1.8-6.48-2.46-5.46-6.49,3.31-13,17.57-8.92,26.2-4.37S796.65,136.46,806,139a90.94,90.94,0,0,0,54.49-2.34c19.16-6.93,38-21.11,45.46-40.7,6.82-18-2-42.82-24-43a3,3,0,0,0-3,3c2.59,32.17,36.73,56.92,68.23,49.66,9.31-2.15,17.28-7.51,25.45-12.19,10.46-6,21-9.39,33.08-6.43,21.84,5.37,39.25,22.39,59.66,31.3a156.14,156.14,0,0,0,73,12.62c3.83-.26,3.86-6.26,0-6a151.4,151.4,0,0,1-64.06-9.42c-20-7.62-36.29-21.68-55.73-30.32-8-3.56-16.74-6-25.59-5.27-9.14.75-17.18,4.74-25,9.3-8.43,4.92-16.75,10.19-26.65,11.38a48.72,48.72,0,0,1-23.07-3.11C900.8,90.88,886.5,75,885,56l-3,3c11.38.1,19.93,10.69,20.57,21.6.7,11.94-6.13,23.09-14.14,31.38-13.9,14.38-33.49,22.68-53.34,24A83.06,83.06,0,0,1,806,132.78c-10-3-18.2-8.84-27.61-13-7.33-3.2-16.5-5.16-23.38.07-4.82,3.67-8.31,10.32-7.23,16.47s6.56,9.52,12.64,7.8,10.4-7.5,12.09-13.48c4.92-17.43-11.14-28.88-26.23-32.17C727.24,94.36,706.81,97,688,101c-20.56,4.34-40.53,11-60.78,16.57-21.43,5.86-43.82,10.8-66.15,8.22-11.37-1.31-23.59-4.55-33.2-11-5.22-3.5-10.14-8.68-10.69-15.25-.47-5.6,2.09-11.64,7.67-13.53l-3.39-1.38c4.73,8.24-7.14,18.18-12.82,22.89a82.26,82.26,0,0,1-19.39,11.78c-14.69,6.48-30.88,9.23-46.8,10.38-16.16,1.17-32.35.69-48.51,0l-64.11-2.73-72.27-3.06c-1.77-.08-2.8,1.44-3,3-1.07,8.24,9.25,14.77,16.45,10.72,9.82-5.52,1-21.41-4.78-26.51C255.51,101.66,241,102.31,228,106c-16.23,4.57-32,11.25-47.9,17s-31.41,12.16-47.51,16.75c-15.67,4.47-33.75,6-46.55-6-5-4.66-8.81-11.1-8.71-18.11.12-7.33,8.4-19.38,15.33-10,10.56,14.3-13.53,25.43-23.33,29.55a148.3,148.3,0,0,1-103.16,4c-3.68-1.2-5.26,4.59-1.6,5.79Z"/></svg>